<mxfile host="app.diagrams.net" agent="Mozilla/5.0 (X11; Linux x86_64; rv:141.0) Gecko/20100101 Firefox/141.0" version="28.0.7">
  <diagram name="Seite-1" id="5rlcN-MIJn2jwEJ2UPRv">
    <mxGraphModel dx="814" dy="1348" grid="1" gridSize="10" guides="1" tooltips="1" connect="1" arrows="1" fold="1" page="1" pageScale="1" pageWidth="827" pageHeight="1169" math="0" shadow="0">
      <root>
        <mxCell id="0" />
        <mxCell id="1" parent="0" />
        <mxCell id="Fr0SkKWDWSNzRNx7TSYj-61" value="" style="group;align=left;" parent="1" vertex="1" connectable="0">
          <mxGeometry x="90" y="160" width="470" height="80" as="geometry" />
        </mxCell>
        <mxCell id="Fr0SkKWDWSNzRNx7TSYj-30" value="&lt;div style=&quot;line-height: 130%;&quot;&gt;&lt;div align=&quot;left&quot;&gt;&amp;nbsp;&amp;nbsp;&lt;font style=&quot;font-size: 15px; line-height: 130%;&quot;&gt;Merkmal-Einbettung&lt;/font&gt;&lt;/div&gt;&lt;div&gt;&lt;font style=&quot;font-size: 15px;&quot;&gt;&lt;br&gt;&lt;/font&gt;&lt;/div&gt;&lt;div&gt;&lt;font style=&quot;font-size: 15px;&quot;&gt;&lt;br&gt;&lt;/font&gt;&lt;/div&gt;&lt;div&gt;&lt;font style=&quot;font-size: 15px;&quot;&gt;&lt;br&gt;&lt;/font&gt;&lt;/div&gt;&lt;/div&gt;" style="rounded=0;whiteSpace=wrap;html=1;align=left;" parent="Fr0SkKWDWSNzRNx7TSYj-61" vertex="1">
          <mxGeometry width="470" height="80" as="geometry" />
        </mxCell>
        <mxCell id="dY2tgHmN-OLpfwCMAxtW-5" value="&lt;div&gt;Memory-Bank&lt;/div&gt;" style="rounded=0;whiteSpace=wrap;html=1;align=center;" vertex="1" parent="Fr0SkKWDWSNzRNx7TSYj-61">
          <mxGeometry y="40" width="110" height="40" as="geometry" />
        </mxCell>
        <mxCell id="dY2tgHmN-OLpfwCMAxtW-6" value="&lt;div&gt;One-Class&lt;/div&gt;&lt;div&gt;Klassifikation&lt;/div&gt;" style="rounded=0;whiteSpace=wrap;html=1;align=center;" vertex="1" parent="Fr0SkKWDWSNzRNx7TSYj-61">
          <mxGeometry x="110" y="40" width="110" height="40" as="geometry" />
        </mxCell>
        <mxCell id="dY2tgHmN-OLpfwCMAxtW-7" value="Student-Teacher" style="rounded=0;whiteSpace=wrap;html=1;align=center;" vertex="1" parent="Fr0SkKWDWSNzRNx7TSYj-61">
          <mxGeometry x="220" y="40" width="110" height="40" as="geometry" />
        </mxCell>
        <mxCell id="dY2tgHmN-OLpfwCMAxtW-8" value="&lt;div&gt;Probalistisch /&lt;/div&gt;&lt;div&gt;Normalisierter Fluss&lt;/div&gt;" style="rounded=0;whiteSpace=wrap;html=1;align=center;" vertex="1" parent="Fr0SkKWDWSNzRNx7TSYj-61">
          <mxGeometry x="330" y="40" width="140" height="40" as="geometry" />
        </mxCell>
        <mxCell id="Fr0SkKWDWSNzRNx7TSYj-77" value="Augmentierung" style="rounded=0;whiteSpace=wrap;html=1;align=center;" parent="1" vertex="1">
          <mxGeometry x="90" y="340" width="230" height="40" as="geometry" />
        </mxCell>
        <mxCell id="dY2tgHmN-OLpfwCMAxtW-2" value="" style="group;align=left;" vertex="1" connectable="0" parent="1">
          <mxGeometry x="90" y="250" width="298" height="80" as="geometry" />
        </mxCell>
        <mxCell id="dY2tgHmN-OLpfwCMAxtW-3" value="&lt;div&gt;&lt;div&gt;&lt;div&gt;&lt;div&gt;&lt;div&gt;&lt;div&gt;&lt;div align=&quot;left&quot;&gt;&lt;font style=&quot;font-size: 15px;&quot;&gt;&amp;nbsp; Rekonstruktion&lt;/font&gt;&lt;/div&gt;&lt;div&gt;&lt;font style=&quot;font-size: 15px;&quot;&gt;&lt;br&gt;&lt;/font&gt;&lt;/div&gt;&lt;/div&gt;&lt;/div&gt;&lt;/div&gt;&lt;/div&gt;&lt;div&gt;&lt;br&gt;&lt;/div&gt;&lt;div&gt;&lt;br&gt;&lt;/div&gt;&lt;/div&gt;&lt;/div&gt;" style="rounded=0;whiteSpace=wrap;html=1;align=left;" vertex="1" parent="dY2tgHmN-OLpfwCMAxtW-2">
          <mxGeometry width="298" height="80" as="geometry" />
        </mxCell>
        <mxCell id="dY2tgHmN-OLpfwCMAxtW-9" value="Auto-Encoder" style="rounded=0;whiteSpace=wrap;html=1;align=center;" vertex="1" parent="dY2tgHmN-OLpfwCMAxtW-2">
          <mxGeometry x="198" y="40" width="100" height="40" as="geometry" />
        </mxCell>
        <mxCell id="dY2tgHmN-OLpfwCMAxtW-10" value="GAN" style="rounded=0;whiteSpace=wrap;html=1;align=center;" vertex="1" parent="dY2tgHmN-OLpfwCMAxtW-2">
          <mxGeometry x="99" y="40" width="99" height="40" as="geometry" />
        </mxCell>
        <mxCell id="dY2tgHmN-OLpfwCMAxtW-11" value="Transformer" style="rounded=0;whiteSpace=wrap;html=1;align=center;" vertex="1" parent="dY2tgHmN-OLpfwCMAxtW-2">
          <mxGeometry y="40" width="99" height="40" as="geometry" />
        </mxCell>
        <mxCell id="dY2tgHmN-OLpfwCMAxtW-4" value="Segmentierung" style="rounded=0;whiteSpace=wrap;html=1;align=center;" vertex="1" parent="1">
          <mxGeometry x="330" y="340" width="230" height="40" as="geometry" />
        </mxCell>
      </root>
    </mxGraphModel>
  </diagram>
</mxfile>
